<?xml version="1.0" standalone="no"?>
<!DOCTYPE svg PUBLIC "-//W3C//DTD SVG 20010904//EN"
 "http://www.w3.org/TR/2001/REC-SVG-20010904/DTD/svg10.dtd">
<svg version="1.0" xmlns="http://www.w3.org/2000/svg"
 width="14000.000000pt" height="8000.000000pt" viewBox="0 0 14000.000000 8000.000000"
 preserveAspectRatio="xMidYMid meet">

<g transform="translate(0.000000,8000.000000) scale(0.100000,-0.100000)"
fill="#000000" stroke="none">
<path d="M45785 75543 c-536 -20 -1125 -81 -1650 -169 -676 -113 -953 -187
-1555 -419 -2442 -938 -5505 -1968 -9790 -3294 -267 -82 -705 -218 -975 -301
-269 -83 -773 -239 -1120 -346 -4101 -1269 -6511 -2055 -8910 -2907 -1275
-453 -2916 -1076 -3840 -1457 -1729 -714 -3280 -1653 -4600 -2784 -1069 -917
-1983 -1945 -2736 -3081 -885 -1334 -1547 -2854 -1909 -4383 -272 -1149 -390
-2294 -360 -3477 30 -1129 173 -2162 451 -3255 223 -873 574 -1881 846 -2424
340 -679 823 -1281 1418 -1767 596 -487 1324 -853 2070 -1042 454 -115 759
-156 1230 -164 661 -12 1160 63 1860 281 275 86 1049 347 1555 526 1230 434
1446 506 2320 781 2278 717 3687 1183 8555 2834 1947 660 3756 1267 3765 1263
3 -2 -1748 -3468 -3892 -7703 -4615 -9115 -4581 -9048 -4643 -9195 -170 -407
-268 -739 -380 -1289 -105 -519 -174 -1022 -217 -1601 -18 -238 -18 -1281 0
-1520 33 -447 72 -781 133 -1150 214 -1297 632 -2504 1249 -3610 330 -591 689
-1110 1129 -1630 757 -895 1649 -1637 2646 -2200 473 -267 1079 -537 1625
-725 1085 -372 2318 -554 3498 -515 858 29 1534 126 2486 360 983 240 2044
543 3181 905 1559 498 3173 1078 6175 2220 2738 1041 4171 1554 5610 2009 661
209 886 275 1640 481 536 147 723 211 1065 365 1708 767 2923 1155 3970 1266
203 21 571 29 755 15 726 -54 1425 -322 2208 -848 224 -151 458 -324 753 -559
1682 -1338 3554 -3064 5823 -5369 935 -950 1065 -1088 1306 -1385 452 -557
1291 -1548 1925 -2275 1023 -1172 1797 -2048 2395 -2711 297 -329 1099 -1214
1240 -1369 653 -712 1160 -1261 1530 -1655 818 -870 1072 -1134 1759 -1824
1487 -1494 1880 -1809 3016 -2413 1154 -614 2391 -1038 3550 -1217 1619 -251
3205 -112 4793 420 812 271 1727 697 2502 1162 1004 604 2219 1661 4404 3832
900 894 1460 1466 2866 2925 576 598 2581 2725 2939 3120 133 146 875 933
1256 1330 121 127 357 374 525 550 167 176 365 383 440 460 75 77 340 354 590
615 250 261 518 540 595 620 77 80 372 386 655 680 283 294 704 731 935 970
231 239 549 568 705 730 156 162 471 489 700 725 454 470 1524 1576 1795 1855
94 97 370 383 615 635 244 253 654 676 910 940 851 879 1662 1716 1990 2056
179 184 597 616 930 960 333 343 724 748 869 899 146 151 397 412 560 580 651
672 921 951 1501 1550 706 729 841 869 1245 1286 165 170 491 507 725 749 404
418 618 640 1340 1385 562 580 1169 1208 1460 1510 156 162 527 547 824 855
1257 1302 2446 2539 2851 2965 50 52 235 246 411 430 654 684 1432 1517 1641
1755 103 118 571 688 768 935 1122 1409 1828 2516 2352 3685 698 1557 970
3103 817 4640 -132 1329 -598 2614 -1367 3770 -737 1108 -1763 2130 -2912
2900 -1375 923 -2929 1468 -4625 1624 -386 36 -628 44 -1120 38 -481 -6 -686
-17 -1110 -62 -613 -66 -1388 -205 -1839 -331 -993 -277 -1984 -821 -3146
-1727 -327 -256 -885 -725 -1225 -1031 -958 -862 -1368 -1267 -3925 -3866
-236 -240 -695 -707 -1020 -1036 -575 -583 -3254 -3308 -3845 -3910 -162 -165
-781 -795 -1375 -1399 -1857 -1891 -2901 -2955 -4065 -4145 -266 -272 -698
-713 -960 -980 -262 -267 -773 -789 -1135 -1160 -363 -371 -941 -963 -1285
-1315 -765 -783 -1237 -1267 -1960 -2010 -305 -313 -627 -644 -715 -735 -143
-147 -402 -413 -1485 -1530 -1020 -1052 -1796 -1859 -2365 -2460 -242 -256
-485 -512 -540 -570 -320 -333 -643 -686 -1110 -1215 -741 -838 -1419 -1598
-1944 -2180 -445 -494 -494 -546 -501 -543 -4 2 -148 159 -321 349 -173 190
-391 429 -486 531 -95 103 -182 206 -194 230 -34 68 -185 295 -258 388 -36 47
-243 290 -460 540 -217 250 -674 781 -1016 1180 -583 681 -862 1008 -1934
2265 -2864 3359 -4644 5326 -6362 7030 -1141 1132 -2195 2078 -3174 2851
-1095 865 -2128 1499 -3325 2041 -1094 495 -2371 863 -3600 1037 -789 112
-1436 153 -2260 143 -1454 -18 -2864 -227 -4540 -673 -839 -224 -1767 -528
-3525 -1156 -699 -250 -2240 -807 -2304 -834 -19 -8 -36 -12 -38 -10 -6 6
4113 8221 4275 8526 74 140 277 509 450 820 725 1300 881 1589 1176 2180 305
610 505 1052 711 1570 531 1334 847 2606 959 3860 34 377 41 546 40 1030 0
692 -29 1072 -135 1775 -316 2089 -1170 4099 -2462 5795 -382 500 -706 871
-1161 1326 -515 515 -907 854 -1471 1276 -702 524 -1337 915 -2120 1303 -481
239 -802 380 -1222 538 -1376 519 -2723 800 -4203 877 -170 9 -938 11 -1135 3z
m1125 -3223 c919 -59 1809 -231 2657 -515 1325 -443 2531 -1136 3608 -2073
308 -268 760 -729 1041 -1062 1123 -1331 1866 -2928 2143 -4605 98 -593 127
-973 118 -1553 -7 -444 -23 -655 -83 -1077 -181 -1273 -645 -2591 -1463 -4155
-221 -421 -364 -684 -806 -1475 -594 -1064 -579 -1035 -1767 -3405 -570 -1136
-2008 -4002 -3196 -6370 -2479 -4942 -3514 -7011 -3510 -7015 2 -2 93 35 203
81 331 140 357 149 735 264 556 170 1203 378 1845 593 1461 491 2046 700 5440
1937 1707 623 3224 1157 3835 1351 2023 643 3702 922 5282 879 463 -13 728
-33 1138 -86 1504 -193 2878 -685 4232 -1515 663 -405 1296 -882 2183 -1643
1120 -961 2495 -2309 3911 -3836 1341 -1446 2329 -2575 5428 -6204 894 -1047
1349 -1577 1775 -2069 223 -258 407 -472 409 -477 2 -5 -14 -24 -34 -43 l-37
-34 174 -184 c320 -339 507 -542 1479 -1609 675 -740 865 -944 1276 -1370 387
-402 922 -916 944 -908 30 11 434 392 756 713 910 907 1938 2032 4433 4855
424 480 1359 1466 2906 3065 1363 1408 1548 1599 2840 2925 714 734 2916 2990
3450 3535 243 248 661 675 930 950 270 276 801 817 1180 1205 380 387 820 836
979 999 159 163 506 516 770 786 1420 1446 2137 2177 2646 2695 311 316 815
829 1120 1140 778 792 2127 2164 3245 3300 523 530 1096 1113 1275 1295 179
182 622 632 984 1000 1692 1720 2429 2430 3269 3151 1030 884 1864 1432 2513
1653 277 94 693 180 1229 255 1247 174 2464 72 3505 -294 546 -193 1032 -437
1505 -758 671 -454 1353 -1104 1815 -1726 343 -463 608 -955 782 -1450 125
-357 202 -691 249 -1081 27 -218 36 -675 20 -906 -111 -1547 -871 -3110 -2506
-5149 -568 -709 -698 -860 -1284 -1485 -538 -574 -764 -811 -2051 -2155 -724
-756 -2671 -2776 -3595 -3730 -237 -245 -691 -715 -1010 -1045 -318 -330 -786
-814 -1040 -1075 -253 -261 -870 -898 -1370 -1415 -500 -517 -1119 -1156
-1375 -1420 -1581 -1631 -3679 -3798 -4915 -5075 -412 -426 -896 -926 -1075
-1110 -179 -184 -447 -461 -595 -615 -149 -154 -412 -426 -585 -605 -173 -179
-504 -521 -735 -760 -231 -239 -555 -574 -720 -745 -165 -170 -478 -494 -696
-720 -374 -388 -1979 -2055 -2509 -2605 -1143 -1188 -2684 -2806 -3055 -3210
-648 -704 -2136 -2282 -3060 -3245 -1555 -1620 -3271 -3342 -4200 -4215 -833
-782 -1522 -1374 -1970 -1692 -469 -332 -1274 -747 -1920 -988 -1274 -476
-2513 -597 -3740 -365 -780 147 -1516 410 -2330 833 -378 196 -631 345 -788
464 -378 286 -1095 976 -2213 2128 -234 242 -809 850 -1220 1290 -2327 2494
-5474 6060 -6829 7740 -163 202 -265 312 -724 785 -949 978 -2293 2310 -3141
3115 -655 622 -1482 1375 -2055 1871 -1026 888 -1884 1577 -2430 1950 -743
507 -1446 867 -2159 1104 -1074 358 -2118 445 -3358 280 -1211 -162 -2668
-623 -4408 -1397 -173 -77 -351 -153 -395 -170 -44 -16 -267 -81 -495 -143
-1895 -520 -3891 -1203 -7187 -2459 -2674 -1019 -4049 -1522 -5463 -1997
-1888 -635 -3897 -1190 -4730 -1308 -415 -59 -644 -75 -1075 -75 -461 0 -732
21 -1125 85 -1510 248 -2826 988 -3849 2164 -403 463 -717 936 -996 1500 -463
937 -714 1878 -807 3020 -17 211 -17 957 0 1170 53 674 187 1419 313 1743 51
130 -525 -1011 6278 12427 3096 6116 5628 11121 5627 11122 -3 4 -1062 -299
-1546 -442 -1201 -354 -1771 -528 -3015 -921 -1883 -596 -3427 -1110 -8885
-2959 -2530 -857 -4135 -1385 -5970 -1963 -349 -111 -707 -224 -795 -252 -269
-85 -934 -313 -1440 -492 -697 -247 -1170 -410 -1590 -547 -434 -141 -480
-154 -645 -181 -930 -151 -1854 312 -2293 1150 -31 58 -85 181 -122 273 -422
1070 -691 2155 -799 3227 -41 399 -50 602 -50 1095 0 479 4 590 40 975 88 961
317 1919 671 2815 485 1226 1169 2317 2083 3325 293 323 744 760 1100 1066
968 832 2191 1585 3466 2134 748 322 2659 1052 3954 1510 2746 971 4961 1688
10305 3334 2902 893 4986 1565 7160 2306 974 332 2208 778 3290 1190 457 174
536 200 713 234 553 107 1017 162 1622 190 130 6 788 -3 950 -14z"/>
</g>
</svg>
